<svg width="117" height="132" viewBox="0 0 117 132" fill="none" xmlns="http://www.w3.org/2000/svg">
<g filter="url(#filter0_ddddi_40000508_1351)">
<rect x="9" y="2" width="99" height="99" rx="49.5" fill="#9EFFEE" fill-opacity="0.12"/>
<rect x="9.5" y="2.5" width="98" height="98" rx="49" stroke="url(#paint0_linear_40000508_1351)" stroke-opacity="0.48"/>
<path d="M46.9955 63.8831L40.6243 57.5118C39.5148 56.4023 39.1029 54.9518 39.3509 53.4038L40.5977 45.5709C40.8391 44.0583 43.2131 44.2732 43.1533 45.8012L42.9673 50.6334C41.7094 51.6344 41.6009 53.5257 42.7415 54.6661C43.9594 55.8842 45.1797 57.1043 46.3977 58.3224C46.5815 58.5062 46.8783 58.5062 47.0599 58.3224C47.2437 58.1386 47.2437 57.8418 47.0599 57.6602L43.4037 54.0018C43.0338 53.6319 42.8633 53.1381 42.8898 52.6509C42.9829 51.1207 44.8342 50.4297 45.9061 51.4993L50.1957 55.7889L51.0483 56.0193C51.8301 56.2275 52.4523 56.5862 53.0237 57.1597L54.7864 58.9203C55.6435 59.7796 56.062 60.8248 56.0775 62.0384L56.1195 65.6016H47.733C47.7219 64.9439 47.4716 64.3593 46.9955 63.8831ZM46.6855 70.2189H57.1028V66.5383H46.6855L46.6855 70.2189ZM77.6496 53.4037L76.4028 45.5708C76.1614 44.0582 73.7851 44.2731 73.845 45.8011L74.031 50.6333C75.2889 51.6343 75.3974 53.5256 74.2591 54.6661C73.0389 55.8841 71.8208 57.1043 70.6007 58.3223C70.419 58.5061 70.1223 58.5061 69.9385 58.3223C69.7546 58.1385 69.7546 57.8418 69.9385 57.6601L73.5969 54.0017C73.9645 53.6318 74.1351 53.138 74.1085 52.6508C74.0155 51.1206 72.164 50.4296 71.0945 51.4993L66.8049 55.7889L65.9522 56.0192C65.1705 56.2274 64.5482 56.5861 63.9747 57.1596L62.2141 58.9202C61.3549 59.7795 60.9364 60.8247 60.9231 62.0383L60.8788 65.6015H69.2676C69.2765 64.9438 69.5267 64.3592 70.005 63.883L76.374 57.5117C77.4836 56.4022 77.8955 54.9516 77.6497 53.4036L77.6496 53.4037ZM59.8976 70.2189H70.3126V66.5383H59.8976V70.2189ZM63.1197 52.0019L66.4571 53.7514L64.7984 47.5618C64.7918 47.575 64.7851 47.5905 64.7785 47.6039C64.1762 48.8994 62.8186 49.6833 61.3947 49.5571C60.6506 49.4907 60.5022 49.8871 59.7626 50.1838L61.1046 55.1865L63.1198 52.002L63.1197 52.0019ZM55.6035 49.557C54.1795 49.6832 52.822 48.8993 52.2197 47.6038C52.213 47.5905 52.2064 47.575 52.1997 47.5617L50.5411 53.7514L53.8806 52.0018L55.8959 55.1864L57.2357 50.1836C56.496 49.8868 56.3498 49.4904 55.6035 49.5569V49.557ZM59.9152 49.041C59.0671 49.6367 57.9332 49.6367 57.085 49.041C56.6111 48.7088 56.0972 48.5715 55.5215 48.6225C54.4895 48.7132 53.5062 48.1464 53.07 47.2074C52.8264 46.6825 52.4498 46.3082 51.9251 46.0646C50.986 45.6261 50.4192 44.6451 50.51 43.6132C50.5608 43.0352 50.4237 42.5236 50.0915 42.0496C49.4979 41.2014 49.4979 40.0676 50.0915 39.2194C50.4237 38.7455 50.5609 38.2339 50.51 37.656C50.4192 36.624 50.9861 35.6429 51.9251 35.2045C52.4499 34.9609 52.8264 34.5866 53.07 34.0618C53.5062 33.1206 54.4895 32.5536 55.5215 32.6444C56.0972 32.6954 56.611 32.5581 57.085 32.2259C57.9331 31.6324 59.067 31.6324 59.9152 32.2259C60.3891 32.5581 60.9007 32.6954 61.4787 32.6444C62.5108 32.5536 63.4919 33.1205 63.9281 34.0618C64.1739 34.5866 64.5482 34.9609 65.073 35.2045C66.012 35.6429 66.5789 36.624 66.4881 37.656C66.4372 38.2339 66.5744 38.7456 66.9066 39.2194C67.5023 40.0676 67.5023 41.2014 66.9066 42.0496C66.5744 42.5236 66.4371 43.0351 66.4881 43.6132C66.5789 44.6451 66.0119 45.6262 65.073 46.0646C64.5481 46.3082 64.1739 46.6825 63.9281 47.2074C63.4919 48.1464 62.5108 48.7133 61.4787 48.6225C60.9008 48.5715 60.3892 48.7088 59.9152 49.041ZM58.5001 47.1675C62.1077 47.1675 65.0309 44.242 65.0309 40.6345C65.0309 37.027 62.1077 34.1015 58.5001 34.1015C54.8926 34.1015 51.9672 37.027 51.9672 40.6345C51.9672 44.242 54.8926 47.1675 58.5001 47.1675ZM64.0942 40.6345C64.0942 43.7238 61.5895 46.2285 58.5001 46.2285C55.4108 46.2285 52.904 43.7238 52.904 40.6345C52.904 37.5452 55.4108 35.0405 58.5001 35.0405C61.5894 35.0405 64.0942 37.5452 64.0942 40.6345ZM62.6547 39.2858C62.6547 37.8796 61.5142 36.7391 60.108 36.7391C59.4236 36.7391 58.9098 36.945 58.5001 37.3038C58.0883 36.945 57.5744 36.7391 56.8902 36.7391C55.4862 36.7391 54.3457 37.8796 54.3457 39.2858C54.3457 41.4074 56.4384 43.3761 57.8358 44.7735L58.5002 45.4357L59.1624 44.7735C60.5598 43.3761 62.6547 41.4073 62.6547 39.2858ZM60.108 37.6758C59.304 37.6758 58.901 38.0789 58.5001 38.8828C58.0971 38.0789 57.6963 37.6758 56.8902 37.6758C56.0022 37.6758 55.2824 38.3978 55.2824 39.2858C55.2824 40.8936 56.8902 42.5014 58.5002 44.1114C60.108 42.5014 61.7158 40.8936 61.7158 39.2858C61.7158 38.3978 60.996 37.6758 60.108 37.6758H60.108Z" fill="#20B2AA"/>
</g>
<defs>
<filter id="filter0_ddddi_40000508_1351" x="0" y="0" width="117" height="132" filterUnits="userSpaceOnUse" color-interpolation-filters="sRGB">
<feFlood flood-opacity="0" result="BackgroundImageFix"/>
<feColorMatrix in="SourceAlpha" type="matrix" values="0 0 0 0 0 0 0 0 0 0 0 0 0 0 0 0 0 0 127 0" result="hardAlpha"/>
<feOffset dy="1"/>
<feGaussianBlur stdDeviation="1.5"/>
<feColorMatrix type="matrix" values="0 0 0 0 0.101961 0 0 0 0 0.101961 0 0 0 0 0.101961 0 0 0 0.04 0"/>
<feBlend mode="normal" in2="BackgroundImageFix" result="effect1_dropShadow_40000508_1351"/>
<feColorMatrix in="SourceAlpha" type="matrix" values="0 0 0 0 0 0 0 0 0 0 0 0 0 0 0 0 0 0 127 0" result="hardAlpha"/>
<feOffset dy="6"/>
<feGaussianBlur stdDeviation="3"/>
<feColorMatrix type="matrix" values="0 0 0 0 0.101961 0 0 0 0 0.101961 0 0 0 0 0.101961 0 0 0 0.03 0"/>
<feBlend mode="normal" in2="effect1_dropShadow_40000508_1351" result="effect2_dropShadow_40000508_1351"/>
<feColorMatrix in="SourceAlpha" type="matrix" values="0 0 0 0 0 0 0 0 0 0 0 0 0 0 0 0 0 0 127 0" result="hardAlpha"/>
<feOffset dy="13"/>
<feGaussianBlur stdDeviation="4"/>
<feColorMatrix type="matrix" values="0 0 0 0 0.101961 0 0 0 0 0.101961 0 0 0 0 0.101961 0 0 0 0.02 0"/>
<feBlend mode="normal" in2="effect2_dropShadow_40000508_1351" result="effect3_dropShadow_40000508_1351"/>
<feColorMatrix in="SourceAlpha" type="matrix" values="0 0 0 0 0 0 0 0 0 0 0 0 0 0 0 0 0 0 127 0" result="hardAlpha"/>
<feOffset dy="22"/>
<feGaussianBlur stdDeviation="4.5"/>
<feColorMatrix type="matrix" values="0 0 0 0 0.101961 0 0 0 0 0.101961 0 0 0 0 0.101961 0 0 0 0.01 0"/>
<feBlend mode="normal" in2="effect3_dropShadow_40000508_1351" result="effect4_dropShadow_40000508_1351"/>
<feBlend mode="normal" in="SourceGraphic" in2="BackgroundImageFix" result="shape"/>
<feColorMatrix in="SourceAlpha" type="matrix" values="0 0 0 0 0 0 0 0 0 0 0 0 0 0 0 0 0 0 127 0" result="hardAlpha"/>
<feOffset dy="2"/>
<feGaussianBlur stdDeviation="6"/>
<feComposite in2="hardAlpha" operator="arithmetic" k2="-1" k3="1"/>
<feColorMatrix type="matrix" values="0 0 0 0 1 0 0 0 0 1 0 0 0 0 1 0 0 0 0.25 0"/>
<feBlend mode="normal" in2="shape" result="effect5_innerShadow_40000508_1351"/>
<feBlend mode="normal" in="effect5_innerShadow_40000508_1351" in2="effect4_dropShadow_40000508_1351" result="effect5_innerShadow_40000508_1351"/>
</filter>
<linearGradient id="paint0_linear_40000508_1351" x1="51.2339" y1="101" x2="51.2339" y2="2" gradientUnits="userSpaceOnUse">
<stop stop-color="white"/>
<stop offset="0.5" stop-color="white" stop-opacity="0"/>
<stop offset="1" stop-color="white"/>
</linearGradient>
</defs>
</svg>
