<svg width="48" height="48" viewBox="0 0 48 48" fill="none" xmlns="http://www.w3.org/2000/svg">
<path d="M23.8822 36.4281H24.1177H24.4528H42.3215V34.1459C42.3215 31.9632 40.4196 30.2696 38.246 30.5232L26.4905 34.0009C25.603 34.2635 24.8875 34.8614 24.4528 35.631V31.6175C24.5387 31.6411 24.6251 31.6659 24.7215 31.6562C26.0645 31.5206 28.4996 31.0519 30.3829 29.4422C32.2662 27.8325 33.1083 25.5003 33.4515 24.1946C33.5835 23.6923 33.1776 23.2175 32.6608 23.2696C31.3178 23.4053 28.8827 23.8739 26.9994 25.4836C25.731 26.5677 24.9423 27.9744 24.4528 29.1796V22.3723C25.7298 22.164 26.7079 21.05 26.7079 19.7186V19.0847H24.4528H23.5472H21.3011V19.7186C21.3011 21.05 22.2701 22.164 23.5472 22.3723V25.6991C23.0672 24.4478 22.2586 22.9295 20.9102 21.7769C19.0269 20.1674 16.5919 19.6986 15.2488 19.563C14.732 19.5108 14.3262 19.9856 14.4582 20.4881C14.8013 21.7936 15.6435 24.1259 17.5268 25.7355C19.4101 27.3452 21.8452 27.814 23.1882 27.9495C23.317 27.9626 23.4388 27.9425 23.5472 27.8978V35.631C23.1215 34.8614 22.406 34.2635 21.5185 34.0009L9.7449 30.5232C7.58942 30.2696 5.6875 31.9632 5.6875 34.1459V36.4281H23.5472H23.8822Z" fill="#20B2AA"/>
<path d="M42.9112 37.3337H5.09989C4.58365 37.3337 4.10363 37.542 3.75947 37.8863C3.42438 38.2213 3.20703 38.6922 3.20703 39.2176C3.20703 40.259 4.05835 41.1013 5.09989 41.1013H19.0561C19.5995 43.3384 21.601 44.9957 24.001 44.9957C26.401 44.9957 28.4025 43.3384 28.9459 41.1013H42.9112C43.4365 41.1013 43.9074 40.893 44.2425 40.5489C44.5867 40.2138 44.7949 39.7428 44.7949 39.2176C44.7949 38.1761 43.9527 37.3337 42.9112 37.3337Z" fill="#20B2AA"/>
<path d="M19.2719 15.471C20.1141 16.2137 20.7662 17.1375 21.1557 18.179H23.5466V13.0439L22.5594 12.0477C22.3783 11.8665 22.3783 11.5858 22.5594 11.4046C22.7315 11.2326 23.0213 11.2326 23.1934 11.4046L23.9995 12.2108L24.8145 11.4046C24.9866 11.2326 25.2764 11.2326 25.4485 11.4046C25.6296 11.5858 25.6296 11.8665 25.4485 12.0477L24.4523 13.053V18.179H26.8432C27.2236 17.1738 27.8304 16.25 28.6546 15.5345C30.1761 14.2304 31.1361 12.2922 31.1361 10.1368C31.1361 6.04315 27.6946 2.76467 23.5466 3.01817C20.0417 3.23563 17.1707 6.05222 16.8991 9.54805C16.7089 11.9027 17.6598 14.0402 19.2719 15.471Z" fill="#20B2AA"/>
</svg>
