<svg width="178" height="178" viewBox="0 0 178 178" fill="none" xmlns="http://www.w3.org/2000/svg">
<rect x="39.5" y="39.5" width="99" height="99" rx="49.5" stroke="#A5E7F0"/>
<g filter="url(#filter0_ddddi_40000674_152)">
<rect x="39.5" y="39.5" width="99" height="99" rx="49.5" fill="#9EFFEE" fill-opacity="0.12"/>
<rect x="40" y="40" width="98" height="98" rx="49" stroke="url(#paint0_linear_40000674_152)" stroke-opacity="0.48"/>
<g filter="url(#filter1_dddf_40000674_152)">
<rect x="44" y="44" width="90" height="90" rx="45" fill="url(#paint1_linear_40000674_152)"/>
</g>
</g>
<g clip-path="url(#clip0_40000674_152)">
<path d="M92.5078 93.9023H96.7266C97.3095 93.9023 97.7812 93.4298 97.7812 92.8477V91.4414H91.4531V92.8477C91.4531 93.4298 91.9256 93.9023 92.5078 93.9023Z" fill="#20B2AA"/>
<path d="M84.0102 88.7131C85.3501 86.56 87.1791 84.7415 89.3405 83.413V88.2772C89.3405 88.8594 89.813 89.3319 90.3952 89.3319H98.8327C99.4156 89.3319 99.8874 88.8594 99.8874 88.2772V86.783C99.7531 86.795 99.6174 86.8013 99.4796 86.8013C96.9287 86.8013 94.8538 84.7257 94.8538 82.1748C94.8538 79.6238 96.9287 77.5482 99.4796 77.5482C99.6174 77.5482 99.7531 77.5545 99.8874 77.5665V76.2734C99.8874 75.6912 99.4156 75.2188 98.8327 75.2188H97.778V73.1094H98.8327C99.4156 73.1094 99.8874 72.6369 99.8874 72.0547C99.8874 71.4725 99.4156 71 98.8327 71H94.614H90.3952C89.813 71 89.3405 71.4725 89.3405 72.0547C89.3405 72.6369 89.813 73.1094 90.3952 73.1094H91.4499V75.2188H90.3952C89.813 75.2188 89.3405 75.6912 89.3405 76.2734V77.9365C86.9684 78.9789 84.787 80.4648 82.8992 82.352C81.4346 83.8166 80.2119 85.4584 79.25 87.2288C80.9828 86.9791 82.7958 87.5836 84.0102 88.7131Z" fill="#20B2AA"/>
<path d="M80.0444 96.8714C82.0708 96.8714 83.7311 95.2746 83.8329 93.273C83.9547 91.1345 82.2085 89.2737 80.0444 89.2847C77.8804 89.2737 76.1342 91.1346 76.256 93.273C76.3578 95.2746 78.018 96.8714 80.0444 96.8714Z" fill="#20B2AA"/>
<path d="M102.258 100.846V97.5078C102.258 96.9256 101.785 96.4531 101.203 96.4531H88.9688C88.3866 96.4531 87.9141 96.9256 87.9141 97.5078C87.9141 98.09 88.3866 98.5625 88.9688 98.5625H100.148V100.672H82.4775V98.4528C81.7343 98.7924 80.9081 98.9809 80.0391 98.9809C79.002 98.9809 78.0267 98.7123 77.1788 98.2398V100.672H76.7801C75.049 100.672 73.6406 102.08 73.6406 103.811V105.945C73.6406 106.528 74.1131 107 74.6953 107H103.312C103.895 107 104.367 106.528 104.367 105.945V103.811C104.367 102.441 103.484 101.274 102.258 100.846Z" fill="#20B2AA"/>
<path d="M99.4779 84.6917C100.868 84.6917 101.995 83.5648 101.995 82.1747C101.995 80.7846 100.868 79.6577 99.4779 79.6577C98.0878 79.6577 96.9609 80.7846 96.9609 82.1747C96.9609 83.5648 98.0878 84.6917 99.4779 84.6917Z" fill="#20B2AA"/>
</g>
<defs>
<filter id="filter0_ddddi_40000674_152" x="30.5" y="37.5" width="117" height="132" filterUnits="userSpaceOnUse" color-interpolation-filters="sRGB">
<feFlood flood-opacity="0" result="BackgroundImageFix"/>
<feColorMatrix in="SourceAlpha" type="matrix" values="0 0 0 0 0 0 0 0 0 0 0 0 0 0 0 0 0 0 127 0" result="hardAlpha"/>
<feOffset dy="1"/>
<feGaussianBlur stdDeviation="1.5"/>
<feColorMatrix type="matrix" values="0 0 0 0 0.101961 0 0 0 0 0.101961 0 0 0 0 0.101961 0 0 0 0.04 0"/>
<feBlend mode="normal" in2="BackgroundImageFix" result="effect1_dropShadow_40000674_152"/>
<feColorMatrix in="SourceAlpha" type="matrix" values="0 0 0 0 0 0 0 0 0 0 0 0 0 0 0 0 0 0 127 0" result="hardAlpha"/>
<feOffset dy="6"/>
<feGaussianBlur stdDeviation="3"/>
<feColorMatrix type="matrix" values="0 0 0 0 0.101961 0 0 0 0 0.101961 0 0 0 0 0.101961 0 0 0 0.03 0"/>
<feBlend mode="normal" in2="effect1_dropShadow_40000674_152" result="effect2_dropShadow_40000674_152"/>
<feColorMatrix in="SourceAlpha" type="matrix" values="0 0 0 0 0 0 0 0 0 0 0 0 0 0 0 0 0 0 127 0" result="hardAlpha"/>
<feOffset dy="13"/>
<feGaussianBlur stdDeviation="4"/>
<feColorMatrix type="matrix" values="0 0 0 0 0.101961 0 0 0 0 0.101961 0 0 0 0 0.101961 0 0 0 0.02 0"/>
<feBlend mode="normal" in2="effect2_dropShadow_40000674_152" result="effect3_dropShadow_40000674_152"/>
<feColorMatrix in="SourceAlpha" type="matrix" values="0 0 0 0 0 0 0 0 0 0 0 0 0 0 0 0 0 0 127 0" result="hardAlpha"/>
<feOffset dy="22"/>
<feGaussianBlur stdDeviation="4.5"/>
<feColorMatrix type="matrix" values="0 0 0 0 0.101961 0 0 0 0 0.101961 0 0 0 0 0.101961 0 0 0 0.01 0"/>
<feBlend mode="normal" in2="effect3_dropShadow_40000674_152" result="effect4_dropShadow_40000674_152"/>
<feBlend mode="normal" in="SourceGraphic" in2="BackgroundImageFix" result="shape"/>
<feColorMatrix in="SourceAlpha" type="matrix" values="0 0 0 0 0 0 0 0 0 0 0 0 0 0 0 0 0 0 127 0" result="hardAlpha"/>
<feOffset dy="2"/>
<feGaussianBlur stdDeviation="6"/>
<feComposite in2="hardAlpha" operator="arithmetic" k2="-1" k3="1"/>
<feColorMatrix type="matrix" values="0 0 0 0 1 0 0 0 0 1 0 0 0 0 1 0 0 0 0.25 0"/>
<feBlend mode="normal" in2="shape" result="effect5_innerShadow_40000674_152"/>
<feBlend mode="normal" in="effect5_innerShadow_40000674_152" in2="effect4_dropShadow_40000674_152" result="effect5_innerShadow_40000674_152"/>
</filter>
<filter id="filter1_dddf_40000674_152" x="0" y="0" width="178" height="178" filterUnits="userSpaceOnUse" color-interpolation-filters="sRGB">
<feFlood flood-opacity="0" result="BackgroundImageFix"/>
<feColorMatrix in="SourceAlpha" type="matrix" values="0 0 0 0 0 0 0 0 0 0 0 0 0 0 0 0 0 0 127 0" result="hardAlpha"/>
<feOffset dy="6"/>
<feGaussianBlur stdDeviation="3"/>
<feColorMatrix type="matrix" values="0 0 0 0 0.923077 0 0 0 0 0.990769 0 0 0 0 1 0 0 0 0.2 0"/>
<feBlend mode="normal" in2="BackgroundImageFix" result="effect1_dropShadow_40000674_152"/>
<feColorMatrix in="SourceAlpha" type="matrix" values="0 0 0 0 0 0 0 0 0 0 0 0 0 0 0 0 0 0 127 0" result="hardAlpha"/>
<feOffset dy="13"/>
<feGaussianBlur stdDeviation="4"/>
<feColorMatrix type="matrix" values="0 0 0 0 0.788462 0 0 0 0 0.974615 0 0 0 0 1 0 0 0 0.2 0"/>
<feBlend mode="normal" in2="effect1_dropShadow_40000674_152" result="effect2_dropShadow_40000674_152"/>
<feColorMatrix in="SourceAlpha" type="matrix" values="0 0 0 0 0 0 0 0 0 0 0 0 0 0 0 0 0 0 127 0" result="hardAlpha"/>
<feOffset dy="22"/>
<feGaussianBlur stdDeviation="4.5"/>
<feColorMatrix type="matrix" values="0 0 0 0 0.908654 0 0 0 0 0.989038 0 0 0 0 1 0 0 0 0.2 0"/>
<feBlend mode="normal" in2="effect2_dropShadow_40000674_152" result="effect3_dropShadow_40000674_152"/>
<feBlend mode="normal" in="SourceGraphic" in2="effect3_dropShadow_40000674_152" result="shape"/>
<feGaussianBlur stdDeviation="0" result="effect4_foregroundBlur_40000674_152"/>
</filter>
<linearGradient id="paint0_linear_40000674_152" x1="81.7339" y1="138.5" x2="81.7339" y2="39.5" gradientUnits="userSpaceOnUse">
<stop stop-color="white"/>
<stop offset="0.5" stop-color="white" stop-opacity="0"/>
<stop offset="1" stop-color="white"/>
</linearGradient>
<linearGradient id="paint1_linear_40000674_152" x1="89" y1="44" x2="89" y2="134" gradientUnits="userSpaceOnUse">
<stop stop-color="white" stop-opacity="0"/>
<stop offset="1" stop-color="white" stop-opacity="0.9"/>
</linearGradient>
<clipPath id="clip0_40000674_152">
<rect width="36" height="36" fill="white" transform="translate(71 71)"/>
</clipPath>
</defs>
</svg>
