<svg width="178" height="178" viewBox="0 0 178 178" fill="none" xmlns="http://www.w3.org/2000/svg">
<rect x="39.5" y="39.5" width="99" height="99" rx="49.5" stroke="#A5E7F0"/>
<g filter="url(#filter0_ddddi_40000508_1499)">
<rect x="39.5" y="39.5" width="99" height="99" rx="49.5" fill="#9EFFEE" fill-opacity="0.12"/>
<rect x="40" y="40" width="98" height="98" rx="49" stroke="url(#paint0_linear_40000508_1499)" stroke-opacity="0.48"/>
<g filter="url(#filter1_dddf_40000508_1499)">
<rect x="44" y="44" width="90" height="90" rx="45" fill="url(#paint1_linear_40000508_1499)"/>
</g>
</g>
<path d="M65.375 80.4602H79.2613V81.9302H65.375V80.4602ZM67.3 83.6802H79.2613V110.954H67.3V83.6802ZM70.66 92.0365C70.66 92.2685 70.7522 92.4911 70.9163 92.6552C71.0804 92.8193 71.3029 92.9115 71.535 92.9115H75.035C75.2671 92.9115 75.4896 92.8193 75.6537 92.6552C75.8178 92.4911 75.91 92.2685 75.91 92.0365V88.5365C75.91 88.3044 75.8178 88.0818 75.6537 87.9177C75.4896 87.7537 75.2671 87.6615 75.035 87.6615C69.7973 87.7437 70.744 86.804 70.66 92.0365ZM70.66 99.0715C70.66 99.3035 70.7522 99.5261 70.9163 99.6902C71.0804 99.8543 71.3029 99.9465 71.535 99.9465H75.035C75.2671 99.9465 75.4896 99.8543 75.6537 99.6902C75.8178 99.5261 75.91 99.3035 75.91 99.0715V95.5715C75.91 95.3394 75.8178 95.1168 75.6537 94.9527C75.4896 94.7887 75.2671 94.6965 75.035 94.6965C69.7973 94.7752 70.744 93.839 70.66 99.0715ZM70.66 106.106C70.66 106.339 70.7522 106.561 70.9163 106.725C71.0804 106.889 71.3029 106.981 71.535 106.981H75.035C75.2671 106.981 75.4896 106.889 75.6537 106.725C75.8178 106.561 75.91 106.339 75.91 106.106V102.606C75.91 102.374 75.8178 102.152 75.6537 101.988C75.4896 101.824 75.2671 101.731 75.035 101.731C69.7938 101.815 70.7449 100.87 70.66 106.106ZM100.13 75.9977H97.8638C97.6317 75.9977 97.4091 76.0899 97.245 76.254C97.0809 76.4181 96.9888 76.6406 96.9888 76.8727V110.954H93.1037V102.16C93.1037 101.928 93.0116 101.706 92.8475 101.541C92.6834 101.377 92.4608 101.285 92.2287 101.285H85.7712C85.5392 101.285 85.3166 101.377 85.1525 101.541C84.9884 101.706 84.8962 101.928 84.8962 102.16V110.954H81.0113V76.8727C81.0113 76.6406 80.9191 76.4181 80.755 76.254C80.5909 76.0899 80.3683 75.9977 80.1363 75.9977H77.87L89 67.2827L100.13 75.9977ZM83.89 75.5515C84.1052 82.3047 93.8965 82.303 94.11 75.5515C93.8948 68.7982 84.1 68.8 83.89 75.5515ZM96.3587 87.3377C96.3754 84.2997 94.1205 81.3055 90.9513 82.9715C90.3064 82.6248 89.5866 82.4411 88.8545 82.4366C88.1224 82.432 87.4003 82.6066 86.7513 82.9452C86.4325 82.7785 86.102 82.6352 85.7625 82.5165C83.0587 81.967 81.2055 85.6306 81.7025 88.204C81.8089 89.1068 82.1365 89.9694 82.6562 90.7152C82.7453 92.5055 83.0299 94.2806 83.505 96.009C83.9941 97.5288 85.0852 101.408 87.0925 100.708C87.3001 100.61 87.4756 100.456 87.5981 100.262C87.7206 100.068 87.785 99.8433 87.7838 99.614C87.7838 97.2427 88.545 95.1952 89 94.819C89.4638 95.1952 90.2162 97.2515 90.2162 99.6227C90.2162 99.8506 90.2813 100.074 90.4037 100.266C90.5262 100.458 90.7009 100.611 90.9075 100.708C93.795 101.633 95.2825 93.3577 95.3438 90.7152C96.0163 89.7181 96.3702 88.5404 96.3587 87.3377ZM85.64 75.5515C85.64 74.6603 85.994 73.8057 86.6241 73.1756C87.2542 72.5455 88.1089 72.1915 89 72.1915C89.8911 72.1915 90.7458 72.5455 91.3759 73.1756C92.006 73.8057 92.36 74.6603 92.36 75.5515C92.2471 79.9825 85.7529 79.9816 85.64 75.5515ZM87.1363 76.4265H88.125V77.424C88.125 77.656 88.2172 77.8786 88.3813 78.0427C88.5454 78.2068 88.7679 78.299 89 78.299C89.2321 78.299 89.4546 78.2068 89.6187 78.0427C89.7828 77.8786 89.875 77.656 89.875 77.424V76.4265H90.8638C91.0958 76.4265 91.3184 76.3343 91.4825 76.1702C91.6466 76.0061 91.7388 75.7835 91.7388 75.5515C91.7388 75.3194 91.6466 75.0968 91.4825 74.9327C91.3184 74.7687 91.0958 74.6765 90.8638 74.6765H89.875V73.6877C89.875 73.4557 89.7828 73.2331 89.6187 73.069C89.4546 72.9049 89.2321 72.8127 89 72.8127C88.7679 72.8127 88.5454 72.9049 88.3813 73.069C88.2172 73.2331 88.125 73.4557 88.125 73.6877V74.6765H87.1363C86.9042 74.6765 86.6816 74.7687 86.5175 74.9327C86.3534 75.0968 86.2613 75.3194 86.2613 75.5515C86.2613 75.7835 86.3534 76.0061 86.5175 76.1702C86.6816 76.3343 86.9042 76.4265 87.1363 76.4265ZM86.6462 110.954H88.125V103.035H86.6462V110.954ZM89.875 110.954H91.3537V103.035H89.875V110.954ZM98.7388 83.6802H110.7V110.954H98.7388V83.6802ZM102.09 92.0365C102.09 92.2685 102.182 92.4911 102.346 92.6552C102.51 92.8193 102.733 92.9115 102.965 92.9115H106.465C106.697 92.9115 106.92 92.8193 107.084 92.6552C107.248 92.4911 107.34 92.2685 107.34 92.0365V88.5365C107.34 88.3044 107.248 88.0818 107.084 87.9177C106.92 87.7537 106.697 87.6615 106.465 87.6615C101.232 87.7428 102.172 86.8075 102.09 92.0365ZM102.09 99.0715C102.09 99.3035 102.182 99.5261 102.346 99.6902C102.51 99.8543 102.733 99.9465 102.965 99.9465H106.465C106.697 99.9465 106.92 99.8543 107.084 99.6902C107.248 99.5261 107.34 99.3035 107.34 99.0715V95.5715C107.34 95.3394 107.248 95.1168 107.084 94.9527C106.92 94.7887 106.697 94.6965 106.465 94.6965C101.232 94.7752 102.172 93.8425 102.09 99.0715ZM102.09 106.106C102.09 106.339 102.182 106.561 102.346 106.725C102.51 106.889 102.733 106.981 102.965 106.981H106.465C106.697 106.981 106.92 106.889 107.084 106.725C107.248 106.561 107.34 106.339 107.34 106.106V102.606C107.341 102.491 107.319 102.377 107.276 102.27C107.232 102.164 107.168 102.067 107.086 101.985C107.005 101.904 106.908 101.839 106.801 101.796C106.695 101.752 106.58 101.73 106.465 101.731C101.229 101.814 102.173 100.873 102.09 106.106ZM98.7388 80.4602V81.9302H112.625V80.4602H98.7388ZM94.4425 86.104C94.2141 85.229 93.5579 84.1597 92.5963 84.2315L89.63 85.3252C88.9309 85.5786 88.1598 85.544 87.4862 85.229L86.3838 84.7127L86.305 84.6777L85.3687 84.2315C83.9425 84.0775 83.1576 86.622 83.435 87.9765C83.511 88.6574 83.7712 89.3048 84.1875 89.849C84.316 89.9979 84.39 90.1861 84.3975 90.3827C84.4593 92.1288 84.7266 93.8616 85.1938 95.5452C85.4231 96.4177 85.7397 97.2649 86.1388 98.074C86.3925 95.8427 87.2237 93.0427 89 93.0427C90.7763 93.0427 91.6075 95.8515 91.87 98.0827C92.9414 95.6527 93.5298 93.0375 93.6025 90.3827C93.6795 89.7702 94.2395 89.4316 94.3813 88.7815C94.6595 87.9135 94.6807 86.9837 94.4425 86.104ZM105.59 89.4115H103.84V91.1615H105.59V89.4115ZM105.59 96.4465H103.84V98.1965H105.59V96.4465ZM105.59 103.481H103.84V105.231H105.59V103.481ZM74.16 89.4115H72.41V91.1615H74.16V89.4115ZM74.16 96.4465H72.41V98.1965H74.16V96.4465ZM74.16 103.481H72.41V105.231H74.16V103.481Z" fill="#20B2AA"/>
<defs>
<filter id="filter0_ddddi_40000508_1499" x="30.5" y="37.5" width="117" height="132" filterUnits="userSpaceOnUse" color-interpolation-filters="sRGB">
<feFlood flood-opacity="0" result="BackgroundImageFix"/>
<feColorMatrix in="SourceAlpha" type="matrix" values="0 0 0 0 0 0 0 0 0 0 0 0 0 0 0 0 0 0 127 0" result="hardAlpha"/>
<feOffset dy="1"/>
<feGaussianBlur stdDeviation="1.5"/>
<feColorMatrix type="matrix" values="0 0 0 0 0.101961 0 0 0 0 0.101961 0 0 0 0 0.101961 0 0 0 0.04 0"/>
<feBlend mode="normal" in2="BackgroundImageFix" result="effect1_dropShadow_40000508_1499"/>
<feColorMatrix in="SourceAlpha" type="matrix" values="0 0 0 0 0 0 0 0 0 0 0 0 0 0 0 0 0 0 127 0" result="hardAlpha"/>
<feOffset dy="6"/>
<feGaussianBlur stdDeviation="3"/>
<feColorMatrix type="matrix" values="0 0 0 0 0.101961 0 0 0 0 0.101961 0 0 0 0 0.101961 0 0 0 0.03 0"/>
<feBlend mode="normal" in2="effect1_dropShadow_40000508_1499" result="effect2_dropShadow_40000508_1499"/>
<feColorMatrix in="SourceAlpha" type="matrix" values="0 0 0 0 0 0 0 0 0 0 0 0 0 0 0 0 0 0 127 0" result="hardAlpha"/>
<feOffset dy="13"/>
<feGaussianBlur stdDeviation="4"/>
<feColorMatrix type="matrix" values="0 0 0 0 0.101961 0 0 0 0 0.101961 0 0 0 0 0.101961 0 0 0 0.02 0"/>
<feBlend mode="normal" in2="effect2_dropShadow_40000508_1499" result="effect3_dropShadow_40000508_1499"/>
<feColorMatrix in="SourceAlpha" type="matrix" values="0 0 0 0 0 0 0 0 0 0 0 0 0 0 0 0 0 0 127 0" result="hardAlpha"/>
<feOffset dy="22"/>
<feGaussianBlur stdDeviation="4.5"/>
<feColorMatrix type="matrix" values="0 0 0 0 0.101961 0 0 0 0 0.101961 0 0 0 0 0.101961 0 0 0 0.01 0"/>
<feBlend mode="normal" in2="effect3_dropShadow_40000508_1499" result="effect4_dropShadow_40000508_1499"/>
<feBlend mode="normal" in="SourceGraphic" in2="BackgroundImageFix" result="shape"/>
<feColorMatrix in="SourceAlpha" type="matrix" values="0 0 0 0 0 0 0 0 0 0 0 0 0 0 0 0 0 0 127 0" result="hardAlpha"/>
<feOffset dy="2"/>
<feGaussianBlur stdDeviation="6"/>
<feComposite in2="hardAlpha" operator="arithmetic" k2="-1" k3="1"/>
<feColorMatrix type="matrix" values="0 0 0 0 1 0 0 0 0 1 0 0 0 0 1 0 0 0 0.25 0"/>
<feBlend mode="normal" in2="shape" result="effect5_innerShadow_40000508_1499"/>
<feBlend mode="normal" in="effect5_innerShadow_40000508_1499" in2="effect4_dropShadow_40000508_1499" result="effect5_innerShadow_40000508_1499"/>
</filter>
<filter id="filter1_dddf_40000508_1499" x="0" y="0" width="178" height="178" filterUnits="userSpaceOnUse" color-interpolation-filters="sRGB">
<feFlood flood-opacity="0" result="BackgroundImageFix"/>
<feColorMatrix in="SourceAlpha" type="matrix" values="0 0 0 0 0 0 0 0 0 0 0 0 0 0 0 0 0 0 127 0" result="hardAlpha"/>
<feOffset dy="6"/>
<feGaussianBlur stdDeviation="3"/>
<feColorMatrix type="matrix" values="0 0 0 0 0.923077 0 0 0 0 0.990769 0 0 0 0 1 0 0 0 0.2 0"/>
<feBlend mode="normal" in2="BackgroundImageFix" result="effect1_dropShadow_40000508_1499"/>
<feColorMatrix in="SourceAlpha" type="matrix" values="0 0 0 0 0 0 0 0 0 0 0 0 0 0 0 0 0 0 127 0" result="hardAlpha"/>
<feOffset dy="13"/>
<feGaussianBlur stdDeviation="4"/>
<feColorMatrix type="matrix" values="0 0 0 0 0.788462 0 0 0 0 0.974615 0 0 0 0 1 0 0 0 0.2 0"/>
<feBlend mode="normal" in2="effect1_dropShadow_40000508_1499" result="effect2_dropShadow_40000508_1499"/>
<feColorMatrix in="SourceAlpha" type="matrix" values="0 0 0 0 0 0 0 0 0 0 0 0 0 0 0 0 0 0 127 0" result="hardAlpha"/>
<feOffset dy="22"/>
<feGaussianBlur stdDeviation="4.5"/>
<feColorMatrix type="matrix" values="0 0 0 0 0.908654 0 0 0 0 0.989038 0 0 0 0 1 0 0 0 0.2 0"/>
<feBlend mode="normal" in2="effect2_dropShadow_40000508_1499" result="effect3_dropShadow_40000508_1499"/>
<feBlend mode="normal" in="SourceGraphic" in2="effect3_dropShadow_40000508_1499" result="shape"/>
<feGaussianBlur stdDeviation="0" result="effect4_foregroundBlur_40000508_1499"/>
</filter>
<linearGradient id="paint0_linear_40000508_1499" x1="81.7339" y1="138.5" x2="81.7339" y2="39.5" gradientUnits="userSpaceOnUse">
<stop stop-color="white"/>
<stop offset="0.5" stop-color="white" stop-opacity="0"/>
<stop offset="1" stop-color="white"/>
</linearGradient>
<linearGradient id="paint1_linear_40000508_1499" x1="89" y1="44" x2="89" y2="134" gradientUnits="userSpaceOnUse">
<stop stop-color="white" stop-opacity="0"/>
<stop offset="1" stop-color="white" stop-opacity="0.9"/>
</linearGradient>
</defs>
</svg>
