<svg width="117" height="132" viewBox="0 0 117 132" fill="none" xmlns="http://www.w3.org/2000/svg">
<g filter="url(#filter0_ddddi_40000508_1351)">
<rect x="9" y="2" width="99" height="99" rx="49.5" fill="#9EFFEE" fill-opacity="0.12"/>
<rect x="9.5" y="2.5" width="98" height="98" rx="49" stroke="url(#paint0_linear_40000508_1351)" stroke-opacity="0.48"/>
<g clip-path="url(#clip0_40000508_1351)">
<path fill-rule="evenodd" clip-rule="evenodd" d="M53.696 55.4558H57.6085L56.4202 56.0154L57.0724 58.4587H57.4596L56.8175 64.0034L58.4985 66.4894L60.1795 64.0034L59.5374 58.4587H59.9246L60.5703 56.0397L59.3642 55.4558H63.301C66.9109 55.4558 69.8643 58.4092 69.8643 62.019V66.6993H65.6161L64.7846 62.696C64.7005 62.2914 64.3043 62.0317 63.8998 62.1159C63.4953 62.2 63.2356 62.5962 63.3197 63.0007L64.0879 66.6994H60.5737C59.7772 66.6994 59.0492 67.0015 58.4984 67.4972C57.9477 67.0015 57.2197 66.6994 56.4232 66.6994H52.909L53.6772 63.0007C53.7613 62.5962 53.5016 62.2001 53.0971 62.1159C52.6926 62.0317 52.2965 62.2915 52.2123 62.696L51.3808 66.6993H47.1326V62.019C47.1326 58.4093 50.086 55.4558 53.6959 55.4558L53.696 55.4558ZM40.3393 68.1994H56.4232C57.2255 68.1994 57.8952 68.7953 58.0117 69.5665H39.6407V68.898C39.6407 68.5137 39.9551 68.1994 40.3393 68.1994ZM76.6577 68.1994H60.5737C59.7714 68.1994 59.1018 68.7953 58.9852 69.5665H77.3563V68.898C77.3563 68.5137 77.0419 68.1994 76.6577 68.1994ZM76.0741 37.5932L74.851 39.1792L75.6898 40.9978L73.8036 40.3247L72.3332 41.6844L72.3905 39.6825L70.6429 38.7042L72.5646 38.14L72.9549 36.1757L74.0854 37.829L76.0742 37.5932H76.0741ZM68.6757 30.1349L68.4096 32.1199L70.0453 33.2754L68.0753 33.6356L67.4817 35.5484L66.5303 33.7861L64.5278 33.8126L65.9099 32.3632L65.2658 30.4669L67.0714 31.3335L68.6758 30.1349H68.6757ZM40.923 37.4513L42.908 37.7174L44.0636 36.0817L44.4238 38.0517L46.3366 38.6453L44.5742 39.5966L44.6007 41.5992L43.1513 40.2172L41.255 40.8613L42.1215 39.0557L40.9229 37.4512L40.923 37.4513ZM48.3813 30.053L49.9672 31.276L51.7859 30.4373L51.1128 32.3235L52.4725 33.7939L50.4706 33.7366L49.4923 35.4842L48.9281 33.5625L46.9638 33.1721L48.6171 32.0417L48.3813 30.053ZM58.5395 27.375L59.3015 29.2271L61.2959 29.41L59.7698 30.7071L60.2122 32.6603L58.5071 31.6098L56.7861 32.6341L57.2583 30.6878L55.7523 29.3676L57.7492 29.2152L58.5395 27.375ZM70.4819 39.8909C70.7903 40.6195 70.5464 41.5245 69.6991 41.9303L69.3862 42.0802V46.9279L68.4322 47.8134V50.977H71.8403V47.8134L70.8862 46.9279V40.5544H70.8843C70.8845 40.2683 70.7225 40.0164 70.4818 39.8908L70.4819 39.8909ZM47.8086 40.409C47.7118 40.4553 47.7342 40.5419 47.8584 40.6013L58.204 45.557C58.3282 45.6164 58.509 45.6272 58.6058 45.5809L67.7858 41.1836L58.6073 40.7157C58.1947 40.6947 57.8772 40.3432 57.8982 39.9306C57.9192 39.518 58.2708 39.2005 58.6834 39.2216L67.5116 39.6716L58.6555 35.4295C58.5313 35.3701 58.3506 35.3593 58.2538 35.4056L47.8086 40.409ZM65.8898 43.755V45.8126C65.8898 46.663 65.194 47.3588 64.3436 47.3588H52.516C51.6656 47.3588 50.9698 46.663 50.9698 45.8126V43.7549L57.556 46.9097C58.0763 47.1589 58.7299 47.1845 59.2537 46.9336L65.8898 43.7549V43.755ZM38.541 71.0664H78.456C79.4347 71.0664 80.2353 71.8671 80.2353 72.8457V74.625H36.7617V72.8457C36.7617 71.8671 37.5623 71.0664 38.541 71.0664ZM64.9884 48.7897C64.851 52.2557 61.9982 55.0236 58.4985 55.0236C54.9988 55.0236 52.1605 52.2699 52.0096 48.8164C52.1744 48.8441 52.3436 48.8588 52.5161 48.8588H64.3437C64.5649 48.8588 64.7805 48.8348 64.9884 48.7898V48.7897Z" fill="#20B2AA"/>
</g>
</g>
<defs>
<filter id="filter0_ddddi_40000508_1351" x="0" y="0" width="117" height="132" filterUnits="userSpaceOnUse" color-interpolation-filters="sRGB">
<feFlood flood-opacity="0" result="BackgroundImageFix"/>
<feColorMatrix in="SourceAlpha" type="matrix" values="0 0 0 0 0 0 0 0 0 0 0 0 0 0 0 0 0 0 127 0" result="hardAlpha"/>
<feOffset dy="1"/>
<feGaussianBlur stdDeviation="1.5"/>
<feColorMatrix type="matrix" values="0 0 0 0 0.101961 0 0 0 0 0.101961 0 0 0 0 0.101961 0 0 0 0.04 0"/>
<feBlend mode="normal" in2="BackgroundImageFix" result="effect1_dropShadow_40000508_1351"/>
<feColorMatrix in="SourceAlpha" type="matrix" values="0 0 0 0 0 0 0 0 0 0 0 0 0 0 0 0 0 0 127 0" result="hardAlpha"/>
<feOffset dy="6"/>
<feGaussianBlur stdDeviation="3"/>
<feColorMatrix type="matrix" values="0 0 0 0 0.101961 0 0 0 0 0.101961 0 0 0 0 0.101961 0 0 0 0.03 0"/>
<feBlend mode="normal" in2="effect1_dropShadow_40000508_1351" result="effect2_dropShadow_40000508_1351"/>
<feColorMatrix in="SourceAlpha" type="matrix" values="0 0 0 0 0 0 0 0 0 0 0 0 0 0 0 0 0 0 127 0" result="hardAlpha"/>
<feOffset dy="13"/>
<feGaussianBlur stdDeviation="4"/>
<feColorMatrix type="matrix" values="0 0 0 0 0.101961 0 0 0 0 0.101961 0 0 0 0 0.101961 0 0 0 0.02 0"/>
<feBlend mode="normal" in2="effect2_dropShadow_40000508_1351" result="effect3_dropShadow_40000508_1351"/>
<feColorMatrix in="SourceAlpha" type="matrix" values="0 0 0 0 0 0 0 0 0 0 0 0 0 0 0 0 0 0 127 0" result="hardAlpha"/>
<feOffset dy="22"/>
<feGaussianBlur stdDeviation="4.5"/>
<feColorMatrix type="matrix" values="0 0 0 0 0.101961 0 0 0 0 0.101961 0 0 0 0 0.101961 0 0 0 0.01 0"/>
<feBlend mode="normal" in2="effect3_dropShadow_40000508_1351" result="effect4_dropShadow_40000508_1351"/>
<feBlend mode="normal" in="SourceGraphic" in2="BackgroundImageFix" result="shape"/>
<feColorMatrix in="SourceAlpha" type="matrix" values="0 0 0 0 0 0 0 0 0 0 0 0 0 0 0 0 0 0 127 0" result="hardAlpha"/>
<feOffset dy="2"/>
<feGaussianBlur stdDeviation="6"/>
<feComposite in2="hardAlpha" operator="arithmetic" k2="-1" k3="1"/>
<feColorMatrix type="matrix" values="0 0 0 0 1 0 0 0 0 1 0 0 0 0 1 0 0 0 0.25 0"/>
<feBlend mode="normal" in2="shape" result="effect5_innerShadow_40000508_1351"/>
<feBlend mode="normal" in="effect5_innerShadow_40000508_1351" in2="effect4_dropShadow_40000508_1351" result="effect5_innerShadow_40000508_1351"/>
</filter>
<linearGradient id="paint0_linear_40000508_1351" x1="51.2339" y1="101" x2="51.2339" y2="2" gradientUnits="userSpaceOnUse">
<stop stop-color="white"/>
<stop offset="0.5" stop-color="white" stop-opacity="0"/>
<stop offset="1" stop-color="white"/>
</linearGradient>
<clipPath id="clip0_40000508_1351">
<rect width="48" height="48" fill="white" transform="translate(34.5 27)"/>
</clipPath>
</defs>
</svg>
