<svg width="117" height="132" viewBox="0 0 117 132" fill="none" xmlns="http://www.w3.org/2000/svg">
<g filter="url(#filter0_ddddi_40000508_1351)">
<rect x="9" y="2" width="99" height="99" rx="49.5" fill="#9EFFEE" fill-opacity="0.12"/>
<rect x="9.5" y="2.5" width="98" height="98" rx="49" stroke="url(#paint0_linear_40000508_1351)" stroke-opacity="0.48"/>
<path d="M40.5312 66.4688H52.4062V68.9688H42.25C41.3 68.9688 40.5312 68.2 40.5312 67.25V66.4688ZM64.5938 66.4688V68.9688H74.75C75.7 68.9688 76.4688 68.2 76.4688 67.25V66.4688H64.5938ZM49.125 39.9062H42.25C41.3 39.9062 40.5312 40.675 40.5312 41.625V44.9062H49.55C49.175 43.8813 48.9688 42.775 48.9688 41.625C48.9688 41.0375 49.025 40.4625 49.125 39.9062ZM74.75 39.9062H67.875C67.975 40.4625 68.0312 41.0375 68.0312 41.625C68.0312 42.775 67.825 43.8813 67.45 44.9062H76.4688V41.625C76.4688 40.675 75.7 39.9062 74.75 39.9062ZM53.3438 55.5312H63.6562V53.9688H53.3438V55.5312ZM53.3438 56.4688V68.9688H63.6562V56.4688H53.3438ZM44.5938 59.9062H49.2812V56.4688H44.5938V59.9062ZM72.4062 56.4688V59.9062H67.7188V56.4688H72.4062ZM72.4062 56.4688V59.9062H67.7188V56.4688H72.4062ZM76.4688 45.8438V65.5312H64.5938V53.5C64.5938 53.2438 64.3812 53.0312 64.125 53.0312H52.875C52.6188 53.0312 52.4062 53.2438 52.4062 53.5V65.5312H40.5312V45.8438H49.9563C51.5125 48.9875 54.7563 51.1562 58.5 51.1562C62.2437 51.1562 65.4875 48.9875 67.0437 45.8438H76.4688ZM50.2188 56C50.2188 55.7438 50.0062 55.5312 49.75 55.5312H44.125C43.8688 55.5312 43.6562 55.7438 43.6562 56V60.375C43.6562 60.6312 43.8688 60.8438 44.125 60.8438H49.75C50.0062 60.8438 50.2188 60.6312 50.2188 60.375V56ZM73.3438 56C73.3438 55.7438 73.1312 55.5312 72.875 55.5312H67.25C66.9938 55.5312 66.7812 55.7438 66.7812 56V60.375C66.7812 60.6312 66.9938 60.8438 67.25 60.8438H72.875C73.1312 60.8438 73.3438 60.6312 73.3438 60.375V56ZM67.7188 56.4688H72.4062V59.9062H67.7188V56.4688ZM41.7812 38.5V39.0188C41.9312 38.9875 42.0875 38.9688 42.25 38.9688H49.35C49.5688 38.1938 49.8938 37.4563 50.2938 36.7812H43.5C42.55 36.7812 41.7812 37.55 41.7812 38.5ZM73.5 36.7812H66.7063C67.1063 37.4563 67.4312 38.1938 67.65 38.9688H74.75C74.9125 38.9688 75.0688 38.9875 75.2188 39.0188V38.5C75.2188 37.55 74.45 36.7812 73.5 36.7812ZM61.1932 37.8322C60.7446 37.5734 60.1662 37.6452 59.3682 38.0575C58.8251 38.3389 58.1766 38.3395 57.6321 38.0575C56.8341 37.6446 56.2531 37.5726 55.8026 37.8314C54.6076 38.5147 54.4046 39.5193 55.0525 41.5377C55.2579 42.1701 55.3815 42.8406 55.4901 43.432C55.7614 44.906 55.9476 45.5283 56.5103 45.5319C56.7679 45.5319 56.8841 45.1343 57.0407 44.3119C57.2039 43.4549 57.4276 42.2812 58.5001 42.2812C59.5734 42.2812 59.7946 43.4553 59.9564 44.3128C60.1148 45.1524 60.2359 45.5436 60.4684 45.5326C61.0654 45.5314 61.2417 44.8884 61.5097 43.4214C61.6168 42.8337 61.7386 42.1675 61.9412 41.5379L61.9415 41.5366C62.5955 39.5197 62.3926 38.5156 61.1932 37.8322ZM67.0938 41.625C67.0938 46.3634 63.2384 50.2188 58.5 50.2188C53.7616 50.2188 49.9062 46.3634 49.9062 41.625C49.9062 36.8866 53.7616 33.0312 58.5 33.0312C63.2384 33.0312 67.0938 36.8866 67.0938 41.625ZM61.6601 37.0193C60.921 36.5911 60.0308 36.6586 58.9374 37.225C58.6636 37.3669 58.3365 37.3663 58.0627 37.225C56.9699 36.6598 56.0772 36.5921 55.336 37.0181C53.3117 38.1759 53.6056 40.0976 54.1604 41.8261C54.3472 42.4008 54.4595 43.0111 54.5681 43.6016C54.8272 45.0106 55.0952 46.4678 56.4605 46.4675H56.462C57.5799 46.5484 57.7962 45.3542 57.9616 44.4872C58.0986 43.7682 58.225 43.2186 58.4999 43.2186C58.7743 43.2186 58.8997 43.7679 59.0352 44.4862C59.1939 45.3282 59.4096 46.472 60.4057 46.472C60.4362 46.472 60.4677 46.4708 60.5001 46.4686C61.906 46.4686 62.1733 45.005 62.4318 43.5896C62.5389 43.0028 62.6497 42.3958 62.8334 41.8245C63.3931 40.0975 63.6911 38.1763 61.6601 37.0193Z" fill="#20B2AA"/>
</g>
<defs>
<filter id="filter0_ddddi_40000508_1351" x="0" y="0" width="117" height="132" filterUnits="userSpaceOnUse" color-interpolation-filters="sRGB">
<feFlood flood-opacity="0" result="BackgroundImageFix"/>
<feColorMatrix in="SourceAlpha" type="matrix" values="0 0 0 0 0 0 0 0 0 0 0 0 0 0 0 0 0 0 127 0" result="hardAlpha"/>
<feOffset dy="1"/>
<feGaussianBlur stdDeviation="1.5"/>
<feColorMatrix type="matrix" values="0 0 0 0 0.101961 0 0 0 0 0.101961 0 0 0 0 0.101961 0 0 0 0.04 0"/>
<feBlend mode="normal" in2="BackgroundImageFix" result="effect1_dropShadow_40000508_1351"/>
<feColorMatrix in="SourceAlpha" type="matrix" values="0 0 0 0 0 0 0 0 0 0 0 0 0 0 0 0 0 0 127 0" result="hardAlpha"/>
<feOffset dy="6"/>
<feGaussianBlur stdDeviation="3"/>
<feColorMatrix type="matrix" values="0 0 0 0 0.101961 0 0 0 0 0.101961 0 0 0 0 0.101961 0 0 0 0.03 0"/>
<feBlend mode="normal" in2="effect1_dropShadow_40000508_1351" result="effect2_dropShadow_40000508_1351"/>
<feColorMatrix in="SourceAlpha" type="matrix" values="0 0 0 0 0 0 0 0 0 0 0 0 0 0 0 0 0 0 127 0" result="hardAlpha"/>
<feOffset dy="13"/>
<feGaussianBlur stdDeviation="4"/>
<feColorMatrix type="matrix" values="0 0 0 0 0.101961 0 0 0 0 0.101961 0 0 0 0 0.101961 0 0 0 0.02 0"/>
<feBlend mode="normal" in2="effect2_dropShadow_40000508_1351" result="effect3_dropShadow_40000508_1351"/>
<feColorMatrix in="SourceAlpha" type="matrix" values="0 0 0 0 0 0 0 0 0 0 0 0 0 0 0 0 0 0 127 0" result="hardAlpha"/>
<feOffset dy="22"/>
<feGaussianBlur stdDeviation="4.5"/>
<feColorMatrix type="matrix" values="0 0 0 0 0.101961 0 0 0 0 0.101961 0 0 0 0 0.101961 0 0 0 0.01 0"/>
<feBlend mode="normal" in2="effect3_dropShadow_40000508_1351" result="effect4_dropShadow_40000508_1351"/>
<feBlend mode="normal" in="SourceGraphic" in2="BackgroundImageFix" result="shape"/>
<feColorMatrix in="SourceAlpha" type="matrix" values="0 0 0 0 0 0 0 0 0 0 0 0 0 0 0 0 0 0 127 0" result="hardAlpha"/>
<feOffset dy="2"/>
<feGaussianBlur stdDeviation="6"/>
<feComposite in2="hardAlpha" operator="arithmetic" k2="-1" k3="1"/>
<feColorMatrix type="matrix" values="0 0 0 0 1 0 0 0 0 1 0 0 0 0 1 0 0 0 0.25 0"/>
<feBlend mode="normal" in2="shape" result="effect5_innerShadow_40000508_1351"/>
<feBlend mode="normal" in="effect5_innerShadow_40000508_1351" in2="effect4_dropShadow_40000508_1351" result="effect5_innerShadow_40000508_1351"/>
</filter>
<linearGradient id="paint0_linear_40000508_1351" x1="51.2339" y1="101" x2="51.2339" y2="2" gradientUnits="userSpaceOnUse">
<stop stop-color="white"/>
<stop offset="0.5" stop-color="white" stop-opacity="0"/>
<stop offset="1" stop-color="white"/>
</linearGradient>
</defs>
</svg>
