<svg width="99" height="100" viewBox="0 0 99 100" fill="none" xmlns="http://www.w3.org/2000/svg">
<path d="M44.1021 55.1999C44.4923 55.1636 45.2212 55.1485 45.6241 55.1484C47.8946 55.16 50.1789 55.1053 52.4481 55.1399C55.6667 55.1888 59.0987 54.5934 61.6237 57.1073C63.1809 58.6575 63.7181 60.6729 63.7099 62.8281C63.7018 64.9064 63.6925 66.9745 63.6965 69.0517C63.6196 72.9137 64.3465 76.0039 61.4553 78.9985C60.8262 79.5936 59.3286 80.4275 58.4755 80.5292C53.8457 81.081 48.7348 80.5578 44.0977 80.8192C44.0666 79.7959 44.0787 78.6536 44.1009 77.6279C44.2617 70.1886 43.9293 62.6202 44.1021 55.1999ZM56.4844 75.6608C57.6766 75.5846 57.8443 75.4866 58.496 74.4201L58.5076 65.8573C58.5078 64.6851 58.5785 62.4795 58.4741 61.4167C58.0274 60.7272 57.8346 60.4707 56.9604 60.3252C55.0055 59.9999 50.9413 60.5419 49.1729 60.2331C49.4225 64.2181 49.2017 68.7986 49.1345 72.8151C49.1194 73.7146 47.2704 75.2441 46.5537 75.8105C49.2466 75.4933 53.6098 75.7235 56.4844 75.6608Z" fill="#009A7C"/>
<path d="M86.0838 55.1275C86.3859 55.1082 86.8285 55.0228 87.0106 55.2793C86.9383 56.0975 85.8903 59.4682 85.5782 60.3354L78.4562 60.2537C75.187 60.2433 72.8577 59.5621 73.3896 63.8391C73.4841 64.5982 73.8349 64.8898 74.4073 65.2985C78.5229 65.789 83.7515 64.203 86.9623 67.3928C90.5182 70.9254 89.5631 78.8536 84.4097 80.3878C82.5373 80.9452 79.404 80.766 77.3809 80.7656L69.2957 80.7591C68.9574 80.7746 68.7946 80.7947 68.4624 80.7165C68.2847 80.0618 69.3708 77.4605 69.4723 76.6517C69.6551 75.1954 71.7733 75.6432 72.9366 75.6524L78.4464 75.6833C79.7732 75.6892 82.5444 75.9663 83.4912 74.9895C84.246 74.2109 84.0885 71.2738 82.9453 70.7507C82.2089 70.4137 81.4391 70.4734 80.6485 70.4793C77.1452 70.3215 73.0516 71.3427 70.2806 68.5441C66.7875 64.9266 67.7548 56.5498 73.2741 55.4046C75.1909 55.0068 77.3923 55.1351 79.3402 55.1399C81.588 55.1516 83.836 55.1475 86.0838 55.1275Z" fill="#009A7C"/>
<path d="M15.573 55.1138C17.2385 55.1007 18.9041 55.1026 20.5696 55.1195C20.6495 56.1138 20.5292 58.6652 20.5237 59.7764C20.5053 63.2076 20.5072 66.6389 20.5293 70.07C20.5398 71.8943 19.7924 75.5591 22.2942 75.6482C24.8129 75.738 27.3317 75.6361 29.8534 75.6272C30.3545 76.5295 31.2639 79.6179 31.5318 80.721C31.0125 80.8725 22.1582 80.7656 21.3473 80.6522C20.5302 80.5448 19.7385 80.2912 19.0095 79.9034C16.4293 78.5247 15.1131 75.3224 15.4371 72.6564C15.6975 70.5137 15.0791 56.038 15.573 55.1138Z" fill="#009A7C"/>
<path d="M34.4492 55.0793C36.0621 55.1562 37.9527 55.1021 39.5867 55.0925C39.617 56.6969 39.5403 58.5989 39.538 60.2411L39.5344 73.3888C39.5346 75.5114 39.4326 78.811 39.5949 80.8029C38.2716 80.7784 35.7461 80.6851 34.4814 80.8649C34.6188 74.7513 34.393 68.5316 34.4861 62.4082C34.522 60.0373 34.5478 57.4434 34.4492 55.0793Z" fill="#009A7C"/>
<path d="M56.4688 36.6775L56.6343 36.7759C56.6528 37.2503 54.7713 39.9338 54.7389 41.2349C54.6302 45.6052 60.7426 41.3386 61.8252 41.4593C61.7913 41.6316 61.7155 41.7439 61.5616 41.8449C53.7602 46.9632 58.4231 49.0074 64.9926 48.8145C65.3544 48.8187 66.757 48.6904 66.8899 48.752L66.8687 48.9739C66.2611 49.4429 61.7046 50.1524 60.7885 50.214C58.3064 50.4175 55.3005 50.0605 53.3413 48.3516C49.6749 45.1537 54.1735 39.2809 56.4688 36.6775Z" fill="#009A7C"/>
<path d="M47.5231 38.5427C48.8493 40.0815 50.8489 43.5343 50.6326 45.503C50.1727 49.6898 44.8874 50.5841 41.5615 50.1945C40.6885 50.0921 36.4192 49.4424 35.8711 48.9755C36.4188 48.544 44.6169 49.3887 45.0881 46.4573C45.3848 44.6113 40.6041 41.7735 40.6384 41.409C40.9644 41.4134 41.7386 41.8216 42.0358 41.9635C43.3686 42.5999 48.0063 44.571 47.8275 41.5329C47.7969 41.0138 47.4198 39.9799 47.2406 39.4593C47.3695 38.9953 47.1786 39.0297 47.181 38.6509C47.3111 38.5965 47.3898 38.5776 47.5231 38.5427Z" fill="#009A7C"/>
<path d="M49.5169 20.4101C50.2248 20.3678 50.6678 20.5632 51.3276 20.794C51.7265 20.6893 52.2321 20.4798 52.6345 20.4343C53.9315 20.1733 54.6374 21.9994 54.3268 23.021C53.901 24.4216 53.7821 26.2682 53.3926 27.6218C53.261 28.0832 53.0696 28.5251 52.8231 28.9358C52.5504 28.9727 52.6641 28.9941 52.3867 28.7987C52.1421 28.4135 52.1136 27.8924 52.0493 27.4304C52.0442 26.8705 52.0028 25.7288 51.2802 25.6099C50.6238 26.1078 50.9849 28.3451 50.1212 28.9101C49.1672 28.6118 48.9322 25.0267 48.653 24.0051C48.2479 22.5227 48.0763 21.3429 49.5169 20.4101Z" fill="#9E2016"/>
<path d="M34.766 30.0028C34.9934 29.9924 35.5427 29.9719 35.7256 30.0998C36.5423 30.6712 41.9415 33.2846 41.5002 34.2825C40.7915 34.6566 39.0791 33.7057 38.1002 33.9567C37.9135 34.1456 37.9561 34.0469 37.9518 34.3314C38.2238 34.9578 39.1793 35.3089 39.8296 35.6637C40.1566 35.839 40.7647 36.2623 40.5695 36.6561C39.7348 37.1987 34.5498 35.9871 33.4547 35.5419C31.994 34.948 32.9193 33.4119 33.3122 32.4955C33.8355 31.2743 33.4736 30.7656 34.766 30.0028Z" fill="#9E2016"/>
<path d="M39.3979 24.5055C39.6218 24.4794 40.1701 24.6292 40.4203 24.6866C41.7943 26.065 43.1008 28.3185 44.2708 29.9248C44.496 30.2341 44.6906 30.8227 44.3169 31.1072C43.496 31.0591 41.9018 29.2689 41.2061 29.7136C41.1468 30.3595 42.0575 31.4145 42.4642 31.9215C42.6998 32.2959 42.9759 32.5808 42.7558 32.9988C42.6661 33.0322 42.5837 33.0487 42.4872 33.0458C41.7577 33.0243 37.0191 29.7708 36.5266 29.1207C36.2999 28.8215 36.0971 28.4282 36.166 28.0391C36.2066 27.8098 36.3377 27.5729 36.4844 27.3954C36.7819 27.0353 37.1873 26.7876 37.5149 26.4587C38.1716 25.7989 38.6309 25.0604 39.3979 24.5055Z" fill="#9E2016"/>
<path d="M33.04 36.8382C33.9484 36.699 35.2481 37.1531 36.1973 37.2969C37.1502 37.4412 39.4602 37.4233 40.0232 38.2881C39.8944 39.2942 36.7466 38.7614 36.754 39.8524C37.3788 40.6213 40.0609 40.0358 40.0803 41.0817C39.0649 41.8537 37.1762 41.9803 35.9364 42.3344C35.1053 42.5717 34.3825 42.8227 33.5677 43.1104C31.3818 42.4613 31.9486 41.5474 31.9122 39.6978C31.8826 38.1956 31.1799 37.6441 33.04 36.8382Z" fill="#9E2016"/>
<path d="M45.8511 21.1985C47.8404 21.6723 47.6196 24.2574 48.1084 25.9093C48.3129 26.6002 48.844 28.7164 48.1636 29.1168C47.3217 28.9163 46.8071 26.8383 45.9042 26.5911L45.7423 26.6869C45.4594 27.4565 45.8156 28.0031 45.9824 28.8087C46.0413 29.1884 46.1992 29.8555 46.0031 30.1738C45.2294 30.458 40.5096 23.5819 41.8348 22.9579C42.6453 22.5762 44.9769 21.5256 45.8511 21.1985Z" fill="#9E2016"/>
<path d="M69.2917 36.7562C69.6018 36.7513 69.9243 36.8958 70.1937 37.0414C71.3987 37.6927 70.9915 39.0393 70.5196 39.9754C70.7582 40.5181 70.8493 40.8927 71.0016 41.4616C70.709 42.009 69.8487 43.2319 69.2122 43.0215C67.2205 42.3629 65.1154 41.9826 63.1006 41.4843C62.8741 41.3245 62.8286 41.2644 62.6493 41.0499C62.5581 40.0079 65.301 40.6166 65.9638 39.7562C65.7364 38.8071 63.2353 39.2175 62.6367 38.3925L62.7409 38.1793C64.0758 37.2202 66.4658 37.4837 68.0198 36.9937C68.3987 36.8742 68.8946 36.8093 69.2917 36.7562Z" fill="#9E2016"/>
<path d="M62.7731 24.6235C64.2681 24.6689 64.352 26.049 65.5124 26.839C68.8064 29.0813 63.1388 30.8541 61.9421 32.1918C61.6206 32.5511 60.1714 33.3836 59.7917 32.8411C59.7939 32.4971 59.9277 32.3551 60.1217 32.0703C60.472 31.3113 61.719 30.4861 61.4059 29.6635C60.4855 29.2014 58.7692 31.6827 58.094 30.9869C57.9687 29.8322 60.6969 26.9223 61.2393 25.828C61.5161 25.2694 62.1696 24.8177 62.7731 24.6235Z" fill="#9E2016"/>
<path d="M67.1317 30.0283C67.7409 29.9768 68.1806 30.0272 68.5898 30.5391C68.6966 30.673 68.7842 30.8214 68.8499 30.98C69.086 31.5377 69.1918 32.2706 69.3999 32.829C69.5538 33.2418 69.8426 33.5983 69.985 34.0686C70.0347 34.2287 70.0491 34.3979 70.0273 34.5643C69.8519 35.9215 66.99 36.196 65.9039 36.3252C65.1663 36.4129 62.4783 37.3077 62.0229 36.648C62.0685 36.2982 62.0168 36.4329 62.2392 36.1394C62.897 35.6467 64.8458 34.8339 64.6683 34.073C63.9136 33.607 61.8018 34.7678 61.1953 34.1547C61.2676 33.2729 63.1812 32.4322 63.8536 31.9896C64.9579 31.2626 65.8882 30.4996 67.1317 30.0283Z" fill="#9E2016"/>
<path d="M56.3132 21.2891C57.1707 21.2104 59.8606 22.5026 60.5715 22.8958C62.1367 23.7616 59.4657 26.7741 58.9219 27.7458C58.5712 28.3728 57.4676 30.1998 56.6861 30.2228C56.4827 29.9514 56.5456 29.9719 56.5157 29.5737C56.6873 28.9675 57.2239 27.1208 56.9619 26.6359L56.7696 26.591C55.7881 26.9793 55.1213 29.2675 54.2793 29.2066C53.8334 28.4919 54.8164 25.1109 54.9506 24.1236C55.0944 23.065 55.4127 21.9327 56.3132 21.2891Z" fill="#9E2016"/>
<path d="M56.1995 14.7974L56.396 14.8917C57.5045 19.1158 57.8378 18.3306 54.9862 21.5773L54.8969 21.5639C54.748 21.4199 54.0684 18.5776 53.8672 18.0365C54.5725 16.9191 55.4023 15.8507 56.1995 14.7974Z" fill="#009A7C"/>
<path d="M65.6548 18.551L65.759 18.6167C65.8934 18.9352 65.5401 20.3386 65.5053 20.8078C65.323 23.2613 63.9478 22.9687 62.0586 24.3573C61.9878 24.3217 61.8649 24.2713 61.8757 24.1574C61.9597 23.2559 62.1061 21.2008 62.4765 20.4425C63.5269 19.684 64.5197 19.144 65.6548 18.551Z" fill="#009A7C"/>
<path d="M72.8244 25.6528L72.8916 25.6659L72.975 25.8267C72.6094 26.5908 71.8457 27.7651 71.4093 28.4981C70.8178 29.4918 68.7726 29.3663 67.4677 29.5502L67.3476 29.4921L67.2891 29.2996C67.4952 28.8702 68.0632 28.2074 68.1949 27.8539C69.1625 25.2544 70.4142 26.2206 72.7428 25.6727L72.8244 25.6528Z" fill="#009A7C"/>
<path d="M46.5118 14.8135C46.8221 15.0187 48.6709 17.5496 48.7557 17.9354C48.8603 18.412 48.0517 21.0476 47.7967 21.5885C47.0127 20.6116 46.2657 19.7275 45.4492 18.7763C45.711 17.5656 46.0047 15.9078 46.5118 14.8135Z" fill="#009A7C"/>
<path d="M36.9922 18.5779C37.4035 18.6274 38.9396 19.6067 39.3934 19.8477C40.9876 20.6943 40.5905 22.2793 41.0126 24.2229C40.381 24.3129 38.7431 23.0518 37.6888 22.6896C37.3457 21.5341 37.1527 19.8157 36.9922 18.5779Z" fill="#009A7C"/>
<path d="M29.3524 34.0967C29.7746 34.0903 32.2639 36.0051 32.2459 36.5335C32.175 36.5937 29.5341 37.3918 29.1286 37.5517C28.4356 37.3196 26.1523 35.5179 25.5703 34.9419C26.7983 34.8236 28.1682 34.4605 29.3524 34.0967Z" fill="#009A7C"/>
<path d="M29.6836 25.667C30.5206 25.7238 32.8024 26.0062 33.5603 26.2047C34.0688 26.746 35.4178 28.8568 35.4364 29.5801C34.4196 29.4148 32.9652 29.2326 31.9599 29.1915C31.1386 28.284 30.305 26.7568 29.6836 25.667Z" fill="#009A7C"/>
<path d="M73.1809 34.064C73.663 34.0743 76.3652 34.8428 77.1663 34.977C76.1817 35.8469 74.9843 36.6931 73.9162 37.4743C73.2199 37.5469 72.0948 36.8696 71.3471 36.7353C71.0137 36.6755 70.5448 36.6999 70.3086 36.5005C70.5297 36.0304 72.6644 34.4637 73.1809 34.064Z" fill="#009A7C"/>
<path d="M50.9728 30.2036C52.4234 30.0425 55.6725 30.6801 55.3746 32.5824C54.829 33.4523 53.716 32.6083 53.0825 32.2437C52.664 31.89 51.9618 31.299 51.377 31.5448C50.6989 31.8297 50.9925 32.7939 50.7328 33.4424L50.5968 33.4811C50.2483 33.2131 50.0222 32.9875 49.8652 32.5585C49.6975 32.0925 49.72 31.5782 49.9279 31.129C50.1727 30.5992 50.4554 30.3995 50.9728 30.2036Z" fill="#009A7C"/>
<path d="M52.0475 32.5537C52.6761 32.6234 52.9776 33.1759 53.3488 33.6516L53.4415 34.5491L53.1083 35.444C51.7613 36.4136 50.7536 35.963 50.8877 37.9443C50.0256 38.103 49.825 37.1833 49.694 36.4721C49.4712 35.2632 51.3554 34.7834 51.9914 34.1561C52.2055 33.9448 52.0755 32.8845 52.0475 32.5537Z" fill="#009A7C"/>
<path d="M52.1891 36.5876C52.4696 36.6428 52.5983 36.7887 52.8138 36.9579C54.5259 38.3015 51.4514 39.5429 50.7402 40.4131L50.6792 40.489C50.5278 40.7364 50.4233 40.9688 50.1544 41.0731C49.6893 39.9004 51.6026 38.802 52.0081 37.944C52.1884 37.5624 52.0246 37.0838 52.1891 36.5876Z" fill="#009A7C"/>
<path d="M45.6602 36.3254C46.2589 36.8359 47.0139 37.8851 47.5221 38.5428C47.3888 38.5777 47.3101 38.5966 47.18 38.651C47.1775 39.0298 47.3685 38.9954 47.2396 39.4594C46.7546 38.3992 46.0732 37.4934 45.6602 36.3254Z" fill="#00A88E"/>
</svg>
