<svg width="72" height="72" viewBox="0 0 72 72" fill="none" xmlns="http://www.w3.org/2000/svg">
<g clip-path="url(#clip0_40001761_1030)">
<path d="M25.2242 14.049C23.6197 12.4444 22.9104 11.6576 22.9106 9.8177C22.9104 7.97846 23.62 7.19166 25.2249 5.58643C26.5031 4.30856 26.5031 2.23673 25.2252 0.95859C23.9473 -0.319694 21.8748 -0.319272 20.5966 0.958309C18.8108 2.74397 16.3645 5.18972 16.3652 9.81756C16.3645 14.4461 18.8104 16.8917 20.5965 18.6771C22.2012 20.282 22.9108 21.0693 22.9108 22.9088C22.9108 24.7164 24.3761 26.1816 26.1836 26.1816C27.991 26.1816 29.4563 24.7165 29.4563 22.9088C29.456 18.2804 27.0103 15.8346 25.2242 14.049Z" fill="#20B2AA"/>
<path d="M40.4937 14.049C38.8892 12.4444 38.1799 11.6576 38.1802 9.8177C38.1799 7.97846 38.8895 7.19166 40.4944 5.58643C41.7726 4.30856 41.7726 2.23673 40.4947 0.95859C39.2169 -0.319694 37.1443 -0.319272 35.8662 0.958309C34.0804 2.74397 31.6341 5.19 31.6348 9.81756C31.6341 14.4461 34.08 16.8917 35.866 18.6771C37.4707 20.282 38.1803 21.0693 38.1803 22.9088C38.1803 24.7164 39.6456 26.1816 41.4531 26.1816C43.2605 26.1816 44.7259 24.7165 44.7259 22.9088C44.7257 18.2804 42.2798 15.8346 40.4937 14.049Z" fill="#20B2AA"/>
<path d="M53.6374 56.7273H56.7301C56.7332 56.7273 56.7356 56.7269 56.7387 56.7269C63.3513 56.7225 68.7303 51.3412 68.7303 44.7272C68.7303 38.1103 63.347 32.7271 56.7301 32.7271H52.3665H8.72996C6.92251 32.7271 5.45719 34.1926 5.45719 35.9998V46.909C5.45719 54.2486 8.6252 60.8619 13.6655 65.4545H6.54816C4.74071 65.4545 3.27539 66.9195 3.27539 68.7273C3.27539 70.5344 4.74071 72 6.54816 72H30.5483H54.5483C56.3558 72 57.8211 70.5344 57.8211 68.7273C57.8211 66.9197 56.3558 65.4545 54.5483 65.4545H47.431C50.08 63.0408 52.2109 60.0692 53.6374 56.7273ZM55.6393 46.9091V39.2727H56.7303C59.738 39.2727 62.1849 41.7196 62.1849 44.7273C62.1849 47.735 59.738 50.1819 56.7303 50.1819C56.7287 50.1819 56.7275 50.1819 56.7259 50.1819H55.4258C55.5659 49.1105 55.6393 48.0181 55.6393 46.9091Z" fill="#20B2AA"/>
</g>
<defs>
<clipPath id="clip0_40001761_1030">
<rect width="72" height="72" fill="white"/>
</clipPath>
</defs>
</svg>
