<svg width="74" height="87" viewBox="0 0 74 87" fill="none" xmlns="http://www.w3.org/2000/svg">
<g filter="url(#filter0_ddddi_40000508_1301)">
<rect x="9" width="56" height="56" rx="28" fill="#8E0019" shape-rendering="crispEdges"/>
<g clip-path="url(#clip0_40000508_1301)">
<g clip-path="url(#clip1_40000508_1301)">
<path d="M44.669 19H29.331C28.5961 19 28 19.578 28 20.2917V35.7103C28 36.4241 28.5961 37 29.331 37H44.669C45.4039 37 46 36.4241 46 35.7103V20.2897C45.9979 19.578 45.4018 19 44.669 19ZM33.4563 34.0648H30.7385V25.94H33.4563V34.0648ZM32.0984 24.8313H32.0798C31.167 24.8313 30.5791 24.2081 30.5791 23.4265C30.5791 22.6284 31.1877 22.0216 32.115 22.0216C33.0465 22.0216 33.6178 22.6284 33.6343 23.4265C33.6343 24.2081 33.0465 24.8313 32.0984 24.8313ZM43.2594 34.0648H40.5396V29.7185C40.5396 28.6263 40.1483 27.8817 39.1651 27.8817C38.4117 27.8817 37.9646 28.3836 37.7679 28.869C37.6976 29.0439 37.681 29.2866 37.681 29.5273V34.0689H34.9611C34.9611 34.0689 34.9963 26.7052 34.9611 25.9421H37.681V27.0919C38.0412 26.5386 38.6891 25.7508 40.1297 25.7508C41.9181 25.7508 43.2594 26.9129 43.2594 29.41V34.0648Z" fill="#FAFBFD"/>
</g>
</g>
</g>
<defs>
<filter id="filter0_ddddi_40000508_1301" x="0" y="0" width="74" height="87" filterUnits="userSpaceOnUse" color-interpolation-filters="sRGB">
<feFlood flood-opacity="0" result="BackgroundImageFix"/>
<feColorMatrix in="SourceAlpha" type="matrix" values="0 0 0 0 0 0 0 0 0 0 0 0 0 0 0 0 0 0 127 0" result="hardAlpha"/>
<feOffset dy="4"/>
<feGaussianBlur stdDeviation="2"/>
<feComposite in2="hardAlpha" operator="out"/>
<feColorMatrix type="matrix" values="0 0 0 0 0 0 0 0 0 0 0 0 0 0 0 0 0 0 0.25 0"/>
<feBlend mode="normal" in2="BackgroundImageFix" result="effect1_dropShadow_40000508_1301"/>
<feColorMatrix in="SourceAlpha" type="matrix" values="0 0 0 0 0 0 0 0 0 0 0 0 0 0 0 0 0 0 127 0" result="hardAlpha"/>
<feOffset dy="6"/>
<feGaussianBlur stdDeviation="3"/>
<feColorMatrix type="matrix" values="0 0 0 0 0.101961 0 0 0 0 0.101961 0 0 0 0 0.101961 0 0 0 0.03 0"/>
<feBlend mode="normal" in2="effect1_dropShadow_40000508_1301" result="effect2_dropShadow_40000508_1301"/>
<feColorMatrix in="SourceAlpha" type="matrix" values="0 0 0 0 0 0 0 0 0 0 0 0 0 0 0 0 0 0 127 0" result="hardAlpha"/>
<feOffset dy="13"/>
<feGaussianBlur stdDeviation="4"/>
<feColorMatrix type="matrix" values="0 0 0 0 0.101961 0 0 0 0 0.101961 0 0 0 0 0.101961 0 0 0 0.02 0"/>
<feBlend mode="normal" in2="effect2_dropShadow_40000508_1301" result="effect3_dropShadow_40000508_1301"/>
<feColorMatrix in="SourceAlpha" type="matrix" values="0 0 0 0 0 0 0 0 0 0 0 0 0 0 0 0 0 0 127 0" result="hardAlpha"/>
<feOffset dy="22"/>
<feGaussianBlur stdDeviation="4.5"/>
<feColorMatrix type="matrix" values="0 0 0 0 0.101961 0 0 0 0 0.101961 0 0 0 0 0.101961 0 0 0 0.01 0"/>
<feBlend mode="normal" in2="effect3_dropShadow_40000508_1301" result="effect4_dropShadow_40000508_1301"/>
<feBlend mode="normal" in="SourceGraphic" in2="effect4_dropShadow_40000508_1301" result="shape"/>
<feColorMatrix in="SourceAlpha" type="matrix" values="0 0 0 0 0 0 0 0 0 0 0 0 0 0 0 0 0 0 127 0" result="hardAlpha"/>
<feOffset dy="2"/>
<feGaussianBlur stdDeviation="6"/>
<feComposite in2="hardAlpha" operator="arithmetic" k2="-1" k3="1"/>
<feColorMatrix type="matrix" values="0 0 0 0 1 0 0 0 0 1 0 0 0 0 1 0 0 0 0.25 0"/>
<feBlend mode="normal" in2="shape" result="effect5_innerShadow_40000508_1301"/>
</filter>
<clipPath id="clip0_40000508_1301">
<rect width="40" height="40" fill="white" transform="translate(17 8)"/>
</clipPath>
<clipPath id="clip1_40000508_1301">
<rect width="40" height="40" fill="white" transform="translate(17 8)"/>
</clipPath>
</defs>
</svg>
